# xmcd
#
# Track frame offsets:
# 150
# 24040
# 43902
# 69877
# 94320
# 115622
# 144585
# 171395
# 191752
# 211490
# 232497
# 250352
# 264425
# 288120
#
# Disc length: 4161 seconds
#
#
# Revision: 0
# Processed by: cddbd v1.5.1PL0 Copyright (c) Steve Scherf et al.
# Submitted via: FreeRIP 2.942 
#
DISCID=cf103f0e
DTITLE=Charme Hits Especial - Jovem Rio  94,9 FM
DYEAR=1900
DGENRE=Hip-Hop
TTITLE0=Don'T Leave Me - Blackstreet
TTITLE1=Real Man - Keith Sweat
TTITLE2=Fiesta - R. Kelly
TTITLE3=Mamacita - Public Announcement
TTITLE4=Viedeo - India Arie
TTITLE5=Crazy For You - Eboni Foster
TTITLE6=Checking Me Out - Jaï
TTITLE7=Stutter - Joe
TTITLE8=Just In Case - Jaheim
TTITLE9=Sumthin'On You - Co-Ed
TTITLE10=Just Do It - Billy Feat. The Girls
TTITLE11=All My Time - Paid and Live Feat. Lauryn Hill and Robert "Kool" Bell
TTITLE12=Gonna Get You Home Tonight - Eugene Wilde
TTITLE13=Lollipop Luv - Bryan Loren
EXTD=
EXTT0=
EXTT1=
EXTT2=
EXTT3=
EXTT4=
EXTT5=
EXTT6=
EXTT7=
EXTT8=
EXTT9=
EXTT10=
EXTT11=
EXTT12=
EXTT13=
PLAYORDER=
